<svg xmlns="http://www.w3.org/2000/svg" viewBox="0 0 31 31"><path d="M1 1h7v7h-7zM13 1h1v1h-1zM16 1h2v1h-2zM19 1h3v1h-2v1h-2v-1h1zM23 1h7v7h-7zM2 2v5h5v-5zM24 2v5h5v-5zM3 3h3v3h-3zM9 3h1v2h1v1h-1v3h-1zM11 3h3v2h-1v1h1v-1h3v1h2v1h-1v1h-1v-1h-1v1h-1v-1h-1v1h-1v-1h-1v1h1v1h-1v1h1v-1h1v2h-2v1h-1v1h-3v-1h-1v-1h1v-1h1v2h1v-1h1v-1h-1v-1h1v-3h1v-1h-1zM15 3h1v1h-1zM17 3h1v1h2v1h-3zM20 3h1v1h-1zM25 3h3v3h-3zM21 4h1v1h-1zM20 5h1v1h-1zM19 7h1v1h1v1h-2zM21 7h1v1h-1zM14 8h1v1h-1zM16 8h1v2h2v2h-1v-1h-2v-1h-1v-1h1zM1 9h1v1h-1zM3 9h5v1h-2v1h-1v2h-1v-2h-1v5h-1v-1h-1v-2h1v-1h-1v-1h1v-1h1zM23 9h5v1h-1v1h-2v-1h-1v1h-1zM20 10h2v1h-2zM28 10h2v1h-2zM22 11h1v3h-1v-1h-1v-1h1zM27 11h1v1h-1zM6 12h1v1h1v1h-1v1h-1v1h-1v-1h-1v-1h2zM12 12h1v1h-1zM15 12h1v1h-1zM17 12h1v1h1v1h-2zM24 12h2v1h-2zM28 12h1v2h-2v1h-2v1h1v1h-1v1h-1v-3h-1v-1h3v-1h2zM13 13h1v1h3v1h1v1h-1v2h1v1h-2v-1h-1v-1h1v-1h-1v1h-1v-1h-1zM9 14h3v1h-1v1h1v1h1v1h-2v-1h-3v-1h1zM20 14h2v1h1v3h-1v-1h-1v-2h-1zM29 14h1v1h-1zM7 15h1v1h-1zM19 15h1v1h-1zM28 15h1v1h-1zM1 16h1v1h-1zM4 16h1v1h-1zM6 16h1v1h1v1h-2zM2 17h2v1h2v1h-2v3h-1v-3h-1v3h-1v-4h1zM18 17h1v1h-1zM26 17h2v2h-1v-1h-1zM20 18h2v1h1v1h-1v1h3v-3h1v3h2v2h-1v-1h-1v1h1v1h-1v1h3v-1h1v2h-5v1h-1v-1h-3v-2h-1v-1h-1v1h1v1h-2v-1h-1v2h1v1h-2v-1h-1v-1h1v-1h-1v1h-1v-2h-2v-1h5v1h1v-1h1v-2h-1v-1h2v3h1v-3h-1zM23 18h1v1h-1zM29 18h1v1h-1zM6 19h3v1h-2v1h-1zM11 19h2v1h-2zM28 19h1v1h1v1h-2zM9 20h1v1h-1zM15 20h1v1h-1zM17 20h1v2h-1zM5 21h1v1h-1zM7 21h1v1h-1zM10 21h1v1h-1zM9 22h1v1h-1zM22 22v3h3v-3zM29 22h1v1h-1zM1 23h7v7h-7zM10 23h1v2h1v1h1v1h-2v-1h-1v2h-1v-4h1zM23 23h1v1h-1zM28 23h1v1h-1zM2 24v5h5v-5zM3 25h3v3h-3zM13 25h1v1h-1zM19 26h1v2h-1zM13 27h1v1h-1zM22 27h2v1h-2zM25 27h1v1h-1zM27 27h2v2h-1v-1h-1zM11 28h2v1h2v-1h1v2h-5zM17 28h1v2h-1zM20 28h2v1h-2zM24 28h1v1h3v1h-4zM9 29h1v1h-1zM19 29h1v1h-1zM22 29h1v1h-1z"/></svg>