<?xml version="1.0" encoding="utf-8"?>
<!-- Generator: Adobe Illustrator 23.0.2, SVG Export Plug-In . SVG Version: 6.00 Build 0)  -->
<svg version="1.1" id="Capa_1" xmlns="http://www.w3.org/2000/svg" xmlns:xlink="http://www.w3.org/1999/xlink" x="0px" y="0px"
	 viewBox="0 0 112 56" style="enable-background:new 0 0 112 56;" xml:space="preserve">
<style type="text/css">
	.st0{fill:#FE5D52;}
</style>
<g>
	<path class="st0" d="M42.591,21.794c-0.448,2.352-0.78,5.712-1.075,8.956c-0.031,0.336-0.314,0.587-0.641,0.587
		c-0.018,0-0.04,0-0.058-0.004c-0.354-0.031-0.614-0.345-0.582-0.699c0.3-3.275,0.632-6.671,1.093-9.081
		c0.067-0.349,0.403-0.578,0.753-0.511S42.659,21.444,42.591,21.794z M56.39,20.696c-0.34,0.108-0.529,0.47-0.421,0.811
		c0.668,2.11,1.362,7.925,1.362,9.184c0,0.354,0.287,0.645,0.645,0.645s0.645-0.287,0.645-0.645c0-1.384-0.69-7.271-1.42-9.574
		C57.093,20.777,56.73,20.589,56.39,20.696z M39.299,12.551c0.251,0,0.493-0.148,0.596-0.399c0.134-0.327-0.018-0.708-0.349-0.842
		c-2.952-1.223-5.9-1.398-7.276-1.407l0.134-0.892L32.673,8.9c0.193-0.081,0.332-0.246,0.381-0.448l0.582-2.491
		c0.058-0.242-0.031-0.497-0.228-0.654l-0.403-0.318c-0.013-0.878-0.17-2.182-0.179-2.244c-0.009-0.067-0.228-1.667-2.106-2.298
		c-1.734-0.582-3.898-0.596-5.654-0.036c-1.855,0.591-2.298,2.415-2.276,3.293l0.027,1.631l-0.363,0.363
		c-0.148,0.148-0.215,0.354-0.179,0.556l0.385,2.451c0.036,0.242,0.206,0.439,0.439,0.515l0.327,0.108l0.094,0.703l-0.327,0.049
		l-0.058,0.013c-2.312,0.569-4.166,2.204-5.367,4.726c-0.887,1.864-1.107,3.544-1.111,3.602c-0.435,2.943-0.47,7.302-0.47,12.275
		c0,0.354,0.287,0.645,0.645,0.645c0.354,0,0.645-0.287,0.645-0.645c0-4.919,0.036-9.229,0.457-12.1
		c0.009-0.063,0.815-6.07,5.484-7.244l0.923-0.143c0.018-0.004,0.036-0.009,0.058-0.013c0.022-0.004,0.045-0.009,0.063-0.018
		c0.022-0.009,0.04-0.018,0.058-0.027c0.018-0.009,0.04-0.018,0.058-0.027c0.018-0.009,0.036-0.027,0.049-0.036
		c0.018-0.013,0.031-0.022,0.049-0.036c0.013-0.013,0.027-0.031,0.045-0.045c0.013-0.013,0.027-0.027,0.04-0.045
		c0.013-0.018,0.022-0.036,0.031-0.054c0.009-0.018,0.022-0.036,0.031-0.054c0.009-0.018,0.013-0.04,0.022-0.058
		c0.009-0.018,0.018-0.04,0.022-0.058c0.004-0.022,0.009-0.04,0.009-0.063c0.004-0.022,0.009-0.04,0.009-0.063s0-0.045,0-0.067
		c0-0.018,0-0.04,0-0.058l-0.233-1.729c-0.031-0.246-0.202-0.448-0.439-0.529l-0.336-0.112l-0.273-1.738l0.323-0.323
		c0.125-0.125,0.193-0.291,0.188-0.466l-0.031-1.908c0-0.067-0.009-1.595,1.38-2.038c1.483-0.475,3.387-0.461,4.852,0.031
		c1.093,0.367,1.236,1.21,1.241,1.232c0,0.018,0.197,1.649,0.166,2.379c-0.009,0.206,0.085,0.403,0.246,0.533l0.327,0.26
		l-0.412,1.77l-0.3,0.125c-0.206,0.085-0.354,0.278-0.39,0.497l-0.305,2.007c-0.027,0.193,0.031,0.39,0.161,0.533
		c0.13,0.143,0.323,0.22,0.515,0.206c0.04-0.004,3.821-0.228,7.491,1.29C39.133,12.538,39.218,12.551,39.299,12.551z M54.015,13.412
		c-1.254-0.305-2.285-0.426-2.925-0.475l0.13-1.147l0.255-0.108c0.206-0.085,0.349-0.273,0.385-0.493l0.372-2.392
		c0.04-0.255-0.076-0.511-0.3-0.65l-0.336-0.206c-0.04-0.856-0.202-2.065-0.211-2.124l0,0c-0.031-0.233-0.287-1.622-2.173-2.11
		c-1.864-0.488-3.862-0.372-5.627,0.318c-2.253,0.883-2.213,2.903-2.209,3.002l0.09,1.631l-0.349,0.376
		c-0.139,0.152-0.202,0.358-0.161,0.564l0.479,2.433c0.045,0.237,0.224,0.43,0.457,0.493l0.327,0.094l0.202,1.254
		c-0.865,0.345-2.598,1.147-3.53,2.307c-1.165,1.447-1.859,3.378-2.253,6.272c-0.332,2.607-0.349,5.277-0.336,8.243
		c0,0.354,0.291,0.641,0.645,0.641c0,0,0,0,0.004,0c0.354,0,0.645-0.291,0.641-0.645c-0.013-3.028,0.004-5.542,0.327-8.073
		c0.358-2.643,0.972-4.377,1.98-5.631c1.012-1.259,3.427-2.079,3.45-2.083c0.004,0,0.009-0.004,0.013-0.004
		c0.022-0.009,0.045-0.018,0.067-0.031c0.018-0.009,0.036-0.013,0.049-0.022c0.022-0.013,0.04-0.027,0.058-0.04
		c0.013-0.013,0.031-0.022,0.045-0.036c0.018-0.013,0.031-0.031,0.045-0.049c0.013-0.013,0.027-0.027,0.036-0.04
		c0.013-0.018,0.027-0.04,0.036-0.058c0.009-0.013,0.018-0.027,0.027-0.045c0.009-0.022,0.018-0.045,0.027-0.067
		c0.004-0.018,0.013-0.031,0.018-0.049c0.004-0.022,0.009-0.045,0.013-0.067c0.004-0.018,0.004-0.036,0.009-0.054
		c0-0.022,0-0.045,0-0.067s0-0.04-0.004-0.063c0-0.004,0-0.009,0-0.013l-0.354-2.177c-0.04-0.246-0.22-0.448-0.461-0.515
		l-0.34-0.099l-0.34-1.72l0.314-0.336c0.116-0.13,0.179-0.3,0.17-0.475l-0.103-1.891c0-0.013-0.022-1.192,1.393-1.747
		c1.514-0.591,3.23-0.69,4.829-0.273c1.089,0.282,1.21,0.945,1.219,1.004c0,0.009,0,0.022,0.004,0.031
		c0,0.018,0.206,1.581,0.206,2.321c0,0.224,0.116,0.43,0.305,0.551l0.264,0.166l-0.251,1.613l-0.273,0.116
		c-0.215,0.09-0.363,0.291-0.39,0.52l-0.246,2.204c-0.022,0.184,0.04,0.367,0.161,0.502c0.125,0.139,0.296,0.211,0.484,0.215
		c0.013,0,1.384-0.004,3.333,0.466c0.345,0.085,0.694-0.13,0.78-0.475C54.575,13.842,54.36,13.497,54.015,13.412z M31.364,12.292
		c-0.237-0.188-0.582-0.143-0.771,0.094c-0.556,0.712-1.564,1.111-2.639,1.053c-0.972-0.054-1.949-0.493-2.621-1.174
		c-0.211-0.215-0.56-0.22-0.775-0.004c-0.215,0.211-0.22,0.56-0.004,0.775c0.869,0.883,2.088,1.429,3.342,1.501
		c0.09,0.004,0.179,0.009,0.273,0.009c1.326,0,2.567-0.551,3.293-1.478C31.647,12.825,31.606,12.48,31.364,12.292z M50.669,15.88
		c-0.237-0.188-0.582-0.148-0.771,0.09c-0.663,0.833-1.595,1.25-2.76,1.25c-0.945-0.004-1.9-0.394-2.621-1.075
		c-0.22-0.206-0.569-0.197-0.775,0.022c-0.206,0.22-0.197,0.569,0.022,0.775c0.923,0.865,2.15,1.366,3.369,1.371
		c0.009,0,0.018,0,0.027,0c1.487,0,2.733-0.573,3.597-1.667C50.942,16.413,50.906,16.068,50.669,15.88z M60.243,19.97
		c-0.323,0.148-0.461,0.529-0.318,0.851c0.009,0.022,0.963,2.253,1.048,9.878c0.004,0.354,0.291,0.636,0.645,0.636
		c0.004,0,0.004,0,0.009,0c0.354-0.004,0.641-0.296,0.636-0.65c-0.09-8.015-1.124-10.308-1.169-10.403
		C60.941,19.961,60.565,19.823,60.243,19.97z M13.884,26.265C11.2,27.73,4.61,30.05,4.543,30.073
		c-0.336,0.116-0.511,0.484-0.394,0.82c0.094,0.264,0.34,0.43,0.609,0.43c0.072,0,0.143-0.013,0.215-0.036
		c0.273-0.099,6.756-2.379,9.533-3.893c0.314-0.17,0.426-0.56,0.255-0.874C14.587,26.211,14.197,26.095,13.884,26.265z
		 M107.247,30.969c-0.108,0.242-0.34,0.381-0.587,0.381c-0.09,0-0.175-0.018-0.264-0.058l-9.13-4.072
		c-1.85-0.627-4.968-1.693-5.282-1.864c-0.444-0.246-1.949-1.743-2.388-2.437c-0.305-0.479-1.147-1.416-1.447-1.734
		c-0.04-0.045-0.076-0.099-0.108-0.152c-0.188-0.376-0.296-0.802-0.358-1.12c-1.949-0.502-2.943-2.177-3.252-2.809
		c-0.108-0.004-0.269,0.036-0.372,0.085c-0.103,0.067-0.228,0.108-0.358,0.108c-0.269,0-0.511-0.166-0.605-0.417
		c-0.045-0.081-0.152-0.255-0.269-0.444l-0.838-0.188c-0.197-0.045-0.363-0.179-0.444-0.363l-0.444-0.986l-2.464-0.945
		c-0.121-0.049-0.228-0.13-0.3-0.242l-1.348-1.989c-0.573,0.058-1.057-0.139-1.375-0.363c-0.3,0.067-0.672,0.296-0.869,0.435
		l-0.69,0.86c-0.148,0.184-0.385,0.273-0.618,0.233l-1.519-0.273c-0.475,0.497-1.465,2.379-2.177,4.028l-0.578,1.971
		c-0.054,0.188-0.193,0.34-0.372,0.417c-0.179,0.076-0.385,0.063-0.556-0.031l-1.348-0.748c-0.556,0.269-1.268,0.367-1.604,0.403
		l-2.442,1.366c-0.309,0.175-0.703,0.063-0.878-0.246c-0.175-0.309-0.063-0.703,0.246-0.878l2.563-1.434
		c0.081-0.045,0.175-0.072,0.269-0.081c0.52-0.04,1.21-0.193,1.411-0.367c0.206-0.175,0.497-0.202,0.73-0.072l0.972,0.538
		l0.363-1.236c0.009-0.027,0.018-0.049,0.027-0.072c0.56-1.295,1.962-4.359,2.948-4.816c0.121-0.058,0.255-0.076,0.39-0.049
		l1.411,0.255l0.497-0.623c0.031-0.036,0.067-0.072,0.103-0.103c0.103-0.085,1.048-0.811,1.958-0.775
		c0.17,0.009,0.327,0.081,0.444,0.202c0.045,0.045,0.332,0.296,0.771,0.139c0.278-0.099,0.587,0,0.753,0.246l1.483,2.182
		l2.522,0.968c0.157,0.063,0.287,0.184,0.358,0.336l0.421,0.932l0.784,0.179c0.166,0.036,0.309,0.139,0.403,0.282
		c0.081,0.125,0.152,0.242,0.215,0.34c0.403-0.085,0.909-0.081,1.331,0.26c0.085,0.072,0.152,0.161,0.193,0.264
		c0.009,0.018,0.86,2.065,2.831,2.348c0.296,0.04,0.524,0.282,0.551,0.582c0.013,0.175,0.09,0.681,0.26,1.062
		c0.26,0.278,1.147,1.259,1.523,1.85c0.358,0.564,1.68,1.846,1.931,2.003c0.251,0.116,2.818,1.008,5.094,1.779
		c0.018,0.004,0.036,0.013,0.054,0.022l9.157,4.086C107.247,30.261,107.395,30.642,107.247,30.969z M83.086,16.498L83.086,16.498
		c-0.004,0.022-0.009,0.045-0.013,0.067C83.073,16.543,83.077,16.521,83.086,16.498z M83.162,16.319L83.162,16.319
		c-0.013,0.027-0.027,0.049-0.04,0.076V16.4C83.131,16.373,83.144,16.346,83.162,16.319z M86.733,27.806
		c-0.264-0.134-2.195-1.277-3.7-2.89c-1.348-1.443-1.676-2.684-1.94-3.678c-0.036-0.139-0.072-0.273-0.108-0.399
		c-0.269-0.941-1.254-1.743-1.765-2.115l0.072-1.496c0.004-0.085-0.009-0.17-0.04-0.251l-0.6-1.546
		c-0.121-0.314-0.475-0.47-0.788-0.345c-0.314,0.121-0.47,0.475-0.345,0.788l0.556,1.425l-0.085,1.711
		c-0.009,0.22,0.099,0.43,0.287,0.547c0.34,0.211,1.357,0.963,1.541,1.617c0.036,0.116,0.067,0.242,0.103,0.376
		c0.269,1.008,0.672,2.531,2.231,4.198c1.474,1.577,3.92,3.244,4.395,3.244c0.336,0,0.609-0.273,0.609-0.609
		C87.145,28.115,86.975,27.887,86.733,27.806z M75.322,17.78c-0.072-0.829-0.82-2.325-0.968-2.616c-0.152-0.3-0.52-0.417-0.82-0.264
		c-0.3,0.152-0.417,0.52-0.264,0.82c0.327,0.636,0.802,1.729,0.838,2.164c0.004,0.04,0.376,4.207,1.452,6.348
		c0.108,0.215,0.323,0.336,0.547,0.336c0.09,0,0.184-0.022,0.273-0.063c0.3-0.152,0.421-0.515,0.269-0.815
		C75.833,22.058,75.407,18.797,75.322,17.78z M61.286,17.309c0.529-1.138,0.623-2.639,0.627-2.701
		c0.009-0.161-0.04-0.323-0.148-0.448c-2.164-2.625-7.795-3.105-8.033-3.123c-0.354-0.027-0.663,0.237-0.694,0.591
		c-0.027,0.354,0.237,0.668,0.591,0.694c0.049,0.004,5.022,0.426,6.971,2.468c-0.054,0.488-0.197,1.348-0.488,1.98
		c-0.224,0.484-0.506,0.712-0.699,0.771c-0.108,0.031-0.206,0.018-0.314-0.054c-0.659-0.408-1.272-0.909-1.635-1.232
		c0.031-0.282,0.108-0.753,0.287-1.25c0.121-0.336-0.054-0.703-0.39-0.824c-0.336-0.121-0.703,0.054-0.824,0.39
		c-0.363,1.008-0.385,1.9-0.385,1.935c-0.004,0.179,0.067,0.349,0.197,0.475c0.34,0.327,1.156,1.035,2.07,1.599
		c0.282,0.175,0.582,0.264,0.887,0.264c0.157,0,0.318-0.022,0.475-0.072C60.404,18.591,60.932,18.071,61.286,17.309z M22.817,19.957
		c-0.349-0.058-0.681,0.179-0.739,0.533c-0.444,2.692-0.762,6.469-1.044,10.156c-0.027,0.354,0.237,0.663,0.596,0.69
		c0.018,0,0.031,0,0.049,0c0.332,0,0.618-0.255,0.641-0.596c0.278-3.656,0.596-7.401,1.03-10.044
		C23.408,20.347,23.171,20.015,22.817,19.957z"/>
	<path class="st0" d="M20.259,41.38c-3.781,0-6.859,3.078-6.859,6.859c0,3.781,3.078,6.859,6.859,6.859
		c3.781,0,6.859-3.078,6.859-6.859C27.117,44.458,24.04,41.38,20.259,41.38z M24.868,48.244c0,2.558-2.07,4.641-4.614,4.641
		c-2.558,0-4.641-2.083-4.641-4.641c0-2.545,2.083-4.614,4.641-4.614c1.241,0,2.401,0.479,3.27,1.344
		C24.394,45.842,24.868,47.003,24.868,48.244z M38.394,41.586h2.222v7.943c0,3.073-2.5,5.573-5.573,5.573s-5.573-2.5-5.573-5.573
		v-7.943h2.195v7.943c0,1.864,1.514,3.378,3.378,3.378c1.846,0,3.351-1.514,3.351-3.378L38.394,41.586L38.394,41.586z
		 M51.475,51.129c0,2.227-1.94,3.974-4.413,3.974c-1.254,0-2.903-0.47-4.198-1.196l-0.197-0.108l0.923-2.012l0.233,0.139
		c0.753,0.448,1.967,0.932,3.109,0.932c1.541,0,2.24-0.963,2.24-1.855c0-0.65-0.215-1.313-2.831-2.334
		c-1.407-0.542-3.535-1.366-3.535-3.651c0-2.141,1.814-3.638,4.413-3.638c1.635,0,2.804,0.6,3.638,1.12l0.206,0.13l-1.048,1.702
		l-0.211-0.143c-0.569-0.385-1.469-0.847-2.536-0.847c-1.124,0-2.321,0.542-2.321,1.546c0,0.995,1.295,1.443,2.437,1.841
		C51.081,47.988,51.475,50.228,51.475,51.129z M72.182,51.227l1.308,1.788l-0.157,0.148c-1.348,1.254-3.051,1.944-4.789,1.944
		c-3.781,0-6.859-3.078-6.859-6.859c0-3.781,3.078-6.859,6.859-6.859c1.756,0,3.454,0.681,4.789,1.917l0.157,0.148l-1.308,1.814
		l-0.202-0.197c-0.954-0.941-2.173-1.46-3.436-1.46c-1.228,0-2.392,0.484-3.27,1.366c-0.883,0.883-1.366,2.043-1.366,3.27
		s0.484,2.392,1.366,3.27c0.883,0.883,2.043,1.366,3.27,1.366c1.263,0,2.482-0.52,3.436-1.46L72.182,51.227z M75.667,41.586h2.249
		v13.31h-2.249V41.586z M112,51.129c0,2.227-1.94,3.974-4.413,3.974c-1.254,0-2.903-0.47-4.202-1.196l-0.197-0.108l0.927-2.012
		l0.233,0.139c0.753,0.448,1.967,0.932,3.109,0.932c1.541,0,2.24-0.963,2.24-1.855c0-0.65-0.215-1.313-2.831-2.334
		c-1.407-0.542-3.535-1.366-3.535-3.651c0-2.141,1.814-3.638,4.413-3.638c1.635,0,2.804,0.6,3.638,1.12l0.206,0.13l-1.048,1.702
		l-0.211-0.143c-0.569-0.385-1.469-0.847-2.536-0.847c-1.124,0-2.321,0.542-2.321,1.546c0,0.995,1.295,1.443,2.437,1.841
		C111.606,47.988,112,50.228,112,51.129z M11.146,46.953v7.943H8.951v-7.943c0-1.864-1.514-3.378-3.378-3.378
		c-1.846,0-3.351,1.514-3.351,3.378v7.943H0v-7.943c0-3.073,2.5-5.573,5.573-5.573C8.646,41.38,11.146,43.88,11.146,46.953z
		 M101.1,46.953v7.943h-2.195v-7.943c0-1.864-1.514-3.378-3.378-3.378c-1.846,0-3.351,1.514-3.351,3.378v7.943h-2.222v-7.983
		c-0.018-1.832-1.528-3.333-3.373-3.333c-1.846,0-3.351,1.514-3.351,3.378v7.943h-2.222v-7.943c0-3.073,2.5-5.573,5.573-5.573
		c1.774,0,3.427,0.838,4.476,2.253c1.053-1.416,2.701-2.253,4.467-2.253C98.6,41.38,101.1,43.88,101.1,46.953z"/>
</g>
</svg>
